<svg viewBox="0 0 340 70" xmlns="http://www.w3.org/2000/svg" role="img" aria-label="Reviato logo">
  <title>Reviato logo</title>
  <style>
    .reviato-logo__wordmark {
      fill: #245ccf;
    }
  </style>
  <svg width="340" height="70" viewBox="68 8 194 48" aria-hidden="true">
    <g transform="translate(0.28478789 -108.02437)">
      <path
        class="reviato-logo__wordmark"
        d="M89.112443 160.168L81.695643 146.706H79.612843V160.168H70.926043V124.5064H85.505643C88.316443 124.5064 90.703243 124.9976 92.668443 125.9796C94.667243 126.9616 96.157643 128.3164 97.138843 130.0436C98.120043 131.7372 98.611243 133.6336 98.611243 135.7332C98.611243 138.104 97.933843 140.2208 96.579043 142.0836C95.258043 143.9464 93.293443 145.2674 90.686243 146.0456L98.915843 160.168H89.112443ZM79.612843 140.5592H84.997643C86.589243 140.5592 87.774643 140.169 88.553643 139.3908C89.366443 138.6116 89.772843 137.5108 89.772843 136.0888C89.772843 134.734 89.366443 133.6664 88.553643 132.8884C87.774643 132.1104 86.589243 131.7204 84.997643 131.7204H79.612843V140.5592ZM130.50348 145.5376C130.50348 146.3504 130.45268 147.1972 130.35108 148.0776H110.69148C110.82688 149.8392 111.38568 151.1936 112.36788 152.1424C113.38368 153.0564 114.62028 153.514 116.07628 153.514C118.24468 153.514 119.75148 152.5992 120.59828 150.7708H129.84388C129.36948 152.6336 128.50588 154.3104 127.25228 155.7992C126.03428 157.288 124.49308 158.4576 122.63028 159.3044C120.76748 160.1512 118.68568 160.574 116.38108 160.574C113.60488 160.574 111.13168 159.9812 108.96448 158.7968C106.79608 157.6108 105.10368 155.9172 103.88448 153.7176C102.66528 151.5168 102.05628 148.942 102.05628 145.994C102.05628 143.046 102.64888 140.4724 103.83368 138.2728C105.05288 136.072 106.74528 134.3784 108.91368 133.194C111.08088 132.0084 113.58808 131.4156 116.43268 131.4156C119.17588 131.4156 121.30948 131.9916 122.83348 133.1432C124.35868 134.2948 125.88148 136.0212 127.38948 138.0708C128.88848 140.1204 130.50348 142.5896 130.50348 145.5376ZM121.61348 143.2516C121.61348 141.7612 121.10588 140.5752 120.08988 139.6956C119.07388 138.8152 117.80368 138.3752 116.27968 138.3752C114.82368 138.3752 113.58608 138.798 112.57008 139.6448C111.58888 140.4916 110.97868 141.694 110.74228 143.2516H121.61348ZM147.56166 152.04L153.70846 131.8216H162.95406L152.89566 160.168H142.17686L132.11846 131.8216H141.41486L147.56166 152.04ZM170.71585 127.8752C169.19185 127.8752 167.93825 127.434 166.95585 126.5544C166.00705 125.6404 165.53265 124.5216 165.53265 123.1952C165.53265 121.8392 166.00705 120.7204 166.95585 119.842C167.93825 118.928 169.19185 118.4704 170.71585 118.4704C172.20505 118.4704 173.42525 118.928 174.37405 119.842C175.35525 120.7204 175.84645 121.8392 175.84645 123.1952C175.84645 124.5216 175.35525 125.6404 174.37405 126.5544C173.42525 127.434 172.20505 127.8752 170.71585 127.8752ZM175.03385 130.8216V159.168H166.34705V130.8216H175.03385ZM179.34127 144.944C179.34127 142.032 179.88367 139.4752 180.96847 137.2732C182.08607 135.072 183.59387 133.3784 185.49387 132.194C187.39147 131.0084 189.50947 130.4156 191.84587 130.4156C193.84307 130.4156 195.58847 130.8216 197.07967 131.6344C198.60367 132.4484 199.77207 133.516 200.58587 134.8358V130.8216H209.27267V159.168H200.58587V155.154C199.73847 156.4732 198.55307 157.5416 197.02907 158.3544C195.53887 159.1684 193.79227 159.574 191.79427 159.574C189.49267 159.574 187.39147 158.9812 185.49387 157.7968C183.59387 156.5764 182.08607 154.864 180.96847 152.6608C179.88367 150.4236 179.34127 147.8512 179.34127 144.944ZM200.57567 144.9948C200.57567 142.8264 199.98287 141.1136 198.79747 139.8472C197.64587 138.5808 196.18987 137.9476 194.42827 137.9476C192.66787 137.9476 191.19487 138.5808 190.00947 139.8472C188.85787 141.0788 188.28187 142.7756 188.28187 144.944C188.28187 147.1124 188.85787 148.8252 190.00947 150.0844C191.19487 151.3508 192.66787 151.984 194.42827 151.984C196.18987 151.984 197.64587 151.3508 198.79747 150.0844C199.98287 148.8176 200.57567 147.1212 200.57567 144.9948ZM231.09593 151.8024V159.168H226.67633C223.52673 159.168 221.07153 158.4056 219.31033 156.88C217.54993 155.3224 216.66953 152.7984 216.66953 149.3116V138.034H213.21513V130.8216H216.66953V123.9128H225.35633V130.8216H231.04513V138.034H225.35633V149.4128C225.35633 150.2596 225.55953 150.6488 225.96673 151.0792C226.37313 151.4512 227.05053 151.638 227.99833 151.638H231.09593V151.8024ZM248.56055 159.574C245.78435 159.574 243.27835 158.9812 241.04235 157.7968C238.84035 156.6108 237.09615 154.9172 235.80935 152.7176C234.55735 150.5168 233.93055 147.942 233.93055 144.994C233.93055 142.082 234.57415 139.5252 235.86095 137.3244C237.14775 135.0896 238.90835 133.3784 241.14435 132.194C243.38155 131.0084 245.88755 130.4156 248.66255 130.4156C251.43875 130.4156 253.94475 131.0084 256.18195 132.194C258.41895 133.3784 260.17955 135.0896 261.46635 137.3244C262.75315 139.5252 263.39655 142.082 263.39655 144.994C263.39655 147.906 262.73655 150.4804 261.41555 152.7176C260.12875 154.9172 258.35135 156.6108 256.08035 157.7968C253.84315 158.9812 251.33615 159.574 248.56055 159.574ZM248.56055 152.0556C250.21975 152.0556 251.62515 151.4464 252.77675 150.226C253.96215 149.0056 254.55515 147.2616 254.55515 144.994C254.55515 142.7248 253.97895 140.9808 252.82755 139.7616C251.71095 138.5424 250.32275 137.9332 248.66255 137.9332C246.96915 137.9332 245.56015 138.5424 244.43455 139.7616C243.31695 140.946 242.75815 142.6904 242.75815 144.994C242.75815 147.2616 243.29935 149.0056 244.38415 150.226C245.50075 151.4464 246.89135 152.0556 248.56055 152.0556Z" />
    </g>
  </svg>
</svg>
